<svg width="163" height="164" xmlns="http://www.w3.org/2000/svg">

 <g>
  <title>background</title>
  <rect fill="none" id="canvas_background" height="166" width="165" y="-1" x="-1"/>
 </g>
 <g>
  <title>Layer 1</title>
  <path id="svg_1" d="m124.617624,139.980367c-4.9,0 -9.5,0.3 -13.4,0.7c5,-2 7.9,-4.2 7.9,-6.7c0,-7.1 -24.3,-12.9 -54.3,-12.9s-54.3,5.8 -54.3,12.9c0,7.1 24.3,12.9 54.3,12.9c12.5,0 24,-1 33.2,-2.7c-0.4,0.3 -0.6,0.7 -0.6,1.1c0,2.9 12.2,5.3 27.2,5.3s27.2,-2.4 27.2,-5.3s-12.2,-5.3 -27.2,-5.3z" fill="#444" opacity="0.1"/>
  <path id="svg_2" d="m77.217624,64.380367l0,-48.5l-27.4,0l0,48.5l-0.3,0l-35,57.1c-4.8,11.1 4.5,15.2 12.9,15.2l72,0c8.4,0 19.5,-4.4 12.9,-15.2l-35.1,-57.1z" fill="#F5F5F5"/>
  <path id="svg_3" d="m94.417624,92.380367l-62.1,0l-17.9,29.1c-4.8,11.1 4.5,15.2 12.9,15.2l72,0c8.4,0 19.5,-4.4 12.9,-15.2l-17.8,-29.1z" fill="#3971cc"/>
  <path id="svg_4" d="m94.127769,92.380367l-29.7,0l0,44.2l34.6,0c8.4,0 19.5,-4.4 12.9,-15.2l-17.8,-29z" fill="#4286f4"/>
  <circle id="svg_5" r="4.1" cy="126.880367" cx="73.117624" fill="#fff" opacity="0.2"/>
  <circle id="svg_6" r="3.5" cy="101.880367" cx="74.917624" fill="#fff" opacity="0.2"/>
  <circle id="svg_7" r="4.3" cy="126.880367" cx="95.417624" fill="#fff" opacity="0.2"/>
  <circle id="svg_8" r="2.5" cy="117.080367" cx="80.317624" fill="#fff" opacity="0.2"/>
  <path id="svg_9" d="m94.617624,103.580367c0,1.5 -1.2,2.8 -2.8,2.8c-1.5,0 -2.8,-1.2 -2.8,-2.8c0,-1.5 1.2,-2.8 2.8,-2.8s2.8,1.3 2.8,2.8zm-43.3,-1.8c0,-2.7 2.2,-4.8 4.8,-4.8c2.7,0 4.8,2.2 4.8,4.8c0,2.7 -2.2,4.8 -4.8,4.8c-2.7,0.1 -4.8,-2.1 -4.8,-4.8z" fill="#fff" opacity="0.2"/>
  <circle id="svg_10" r="3.5" cy="126.880367" cx="56.117624" fill="#fff" opacity="0.2"/>
  <circle id="svg_11" r="4.3" cy="108.480367" cx="33.817624" fill="#fff" opacity="0.2"/>
  <circle id="svg_12" r="2.5" cy="115.680367" cx="45.717624" fill="#fff" opacity="0.2"/>
  <path id="svg_13" d="m31.017624,126.880367c0,-1.6 1.3,-2.9 2.9,-2.9s2.9,1.3 2.9,2.9c0,1.6 -1.3,2.9 -2.9,2.9c-1.7,-0.1 -2.9,-1.4 -2.9,-2.9z" fill="#fff" opacity="0.2"/>
  <path id="svg_14" d="m105.317624,39.780367l0,88.4c0,12.7 8.6,19.7 19.3,19.7c10.7,0 19.3,-7 19.3,-19.7l0,-88.4l-38.6,0z" fill="#F5F5F5"/>
  <path id="svg_15" d="m124.517624,147.880367c10.7,0 19.4,-7 19.4,-19.7l0,-88.4l-19.4,0l0,108.1z" fill="#E0E0E0"/>
  <path id="svg_16" d="m143.917624,74.680367l0,53.5c0,12.7 -8.6,19.7 -19.3,19.7s-19.3,-7 -19.3,-19.7l0,-53.5l38.6,0z" fill="#d1a51f"/>
  <path id="svg_17" d="m105.417624,40.480367l38.5,0l0,3.2l-38.5,0l0,-3.2z" fill="#424242" opacity="0.2"/>
  <path id="svg_18" d="m103.417624,40.480367l42.4,0c2,0 3.6,-1.9 3.6,-4.2c0,-2.4 -1.6,-4.3 -3.6,-4.3l-42.4,0c-2,0 -3.6,1.9 -3.6,4.3c0,2.3 1.6,4.2 3.6,4.2z" fill="#E1E1E1"/>
  <path id="svg_19" d="m124.415322,147.590512c10.7,0 19.4,-7 19.4,-19.7l0,-53.5l-19.4,0l0,73.2z" fill="#ffcc32"/>
  <path id="svg_20" d="m133.617624,86.080367l10.2,0l0,2.6l-10.2,0l0,-2.6zm0,17l10.2,0l0,2.5l-10.2,0l0,-2.5zm0,17l10.2,0l0,2.5l-10.2,0l0,-2.5zm0,-68l10.2,0l0,2.6l-10.2,0l0,-2.6zm0,17l10.2,0l0,2.6l-10.2,0l0,-2.6z" fill="#646464"/>
  <path id="svg_21" d="m49.717624,15.880367l27.5,0l0,3.2l-27.5,0l0,-3.2z" fill="#424242" opacity="0.2"/>
  <path id="svg_22" d="m47.717624,15.880367l31.4,0c2,0 3.6,-1.9 3.6,-4.2c0,-2.4 -1.6,-4.3 -3.6,-4.3l-31.4,0c-2,0 -3.6,1.9 -3.6,4.3c0,2.3 1.6,4.2 3.6,4.2z" fill="#E1E1E1"/>
 </g>
</svg>
