<svg width="134.658" height="131.646" xmlns="http://www.w3.org/2000/svg">

 <g>
  <title>background</title>
  <rect fill="none" id="canvas_background" height="402" width="582" y="-1" x="-1"/>
 </g>
 <g>
  <title>Layer 1</title>
  <g stroke="null" id="svg_1">
   <path stroke="null" id="svg_2" d="m130.264833,0.19951l-125.871675,0c-2.314947,0 -4.189661,1.874714 -4.189661,4.187535l0,122.867667c0,2.317074 1.874714,4.191788 4.189661,4.191788l125.871675,0c2.314947,0 4.189661,-1.875777 4.189661,-4.191788l0,-122.866603c0,-2.313884 -1.875777,-4.188598 -4.189661,-4.188598z" fill="#DC4A38"/>
   <g stroke="null" id="svg_3">
    <path stroke="null" id="svg_4" d="m70.678066,72.227657l-4.235386,-3.28899c-1.289863,-1.069746 -3.053987,-2.481896 -3.053987,-5.066938c0,-2.595676 1.764124,-4.24602 3.295371,-5.774076c4.934017,-3.883412 9.863781,-8.016715 9.863781,-16.726744c0,-8.95673 -5.635839,-13.668504 -8.336788,-15.903699l7.282992,0l7.644537,-4.803223l-23.159044,0c-6.354674,0 -15.512381,1.503599 -22.216902,7.038418c-5.053114,4.3598 -7.517996,10.371007 -7.517996,15.782475c0,9.186417 7.053305,18.498312 19.508509,18.498312c1.176083,0 2.462755,-0.115907 3.757935,-0.236067c-0.581661,1.41534 -1.169702,2.593549 -1.169702,4.59374c0,3.648408 1.874714,5.88573 3.527184,8.005018c-5.292372,0.363671 -15.172103,0.949586 -22.455096,5.426356c-6.936335,4.124796 -9.047116,10.128559 -9.047116,14.366072c0,8.721726 8.220881,16.845841 25.267699,16.845841c20.214584,0 30.916298,-11.185545 30.916298,-22.258373c0.001063,-8.135812 -4.699014,-12.140448 -9.872288,-16.498121zm-15.396474,-13.545154c-10.112609,0 -14.693589,-13.073019 -14.693589,-20.961067c0,-3.071 0.581661,-6.241957 2.581852,-8.718536c1.885348,-2.358545 5.169021,-3.888729 8.234705,-3.888729c9.748938,0 14.805242,13.18999 14.805242,21.673522c0,2.122478 -0.23394,5.883603 -2.937016,8.602629c-1.890664,1.886411 -5.054178,3.292181 -7.991194,3.292181zm0.115907,47.365504c-12.575364,0 -20.684592,-6.01546 -20.684592,-14.379896c0,-8.362309 7.51906,-11.190862 10.106229,-12.127687c4.934017,-1.659914 11.283375,-1.891728 12.342487,-1.891728c1.175019,0 1.763061,0 2.698822,0.118034c8.939716,6.362118 12.819938,9.533075 12.819938,15.555979c0,7.293626 -5.99632,12.725299 -17.282885,12.725299z" fill="#FFFFFF"/>
    <polygon stroke="null" id="svg_5" points="100.36085510253906,58.502793312072754 100.36085510253906,46.72601795196533 94.54424285888672,46.72601795196533 94.54424285888672,58.502793312072754 82.78660583496094,58.502793312072754 82.78660583496094,64.38427448272705 94.54424285888672,64.38427448272705 94.54424285888672,76.23335361480713 100.36085510253906,76.23335361480713 100.36085510253906,64.38427448272705 112.17803955078125,64.38427448272705 112.17803955078125,58.502793312072754 " fill="#FFFFFF"/>
   </g>
  </g>
 </g>
</svg>