<svg width="300.00006" height="300" xmlns="http://www.w3.org/2000/svg">
 <defs>
  <filter id="svg_9_blur">
   <feGaussianBlur stdDeviation="0" in="SourceGraphic"/>
  </filter>
 </defs>
 <g>
  <title>background</title>
  <rect fill="none" id="canvas_background" height="302" width="302.00006" y="-1" x="-1"/>
 </g>
 <g>
  <title>Layer 1</title>
  <path id="svg_3" d="m-86.1,-42.7l486,0l0,391l-486,0l0,-391z" stroke-opacity="null" stroke-linecap="null" stroke-linejoin="null" stroke-width="1.5" stroke="#000" fill="#1da1f2"/>
  <g filter="url(#svg_9_blur)" stroke="null" id="svg_9">
   <path stroke-width="0" stroke="null" id="svg_8" fill="#ffffff" d="m115.679545,225.177205c69.81635,0 107.99621,-57.83968 107.99621,-107.99621c0,-1.64284 -0.03347,-3.27825 -0.10716,-4.90626c7.41124,-5.35772 13.85277,-12.04372 18.93348,-19.65486c-6.80098,3.02297 -14.11971,5.05799 -21.79728,5.97561c7.83649,-4.69911 13.85277,-12.1325 16.69111,-20.99395c-7.33363,4.3476 -15.45508,7.50746 -24.10234,9.21345c-6.92639,-7.37771 -16.78734,-11.9922 -27.70616,-11.9922c-20.96105,0 -37.95884,16.99842 -37.95884,37.95139c0,2.97853 0.333,5.87573 0.98423,8.65472c-31.54649,-1.58734 -59.5196,-16.69111 -78.24075,-39.65738c-3.25976,5.60927 -5.13939,12.12506 -5.13939,19.07751c0,13.16864 6.70103,24.79393 16.89102,31.59491c-6.22736,-0.1924 -12.07725,-1.90184 -17.19025,-4.74721c-0.00558,0.15925 -0.00558,0.31451 -0.00558,0.48471c0,18.38221 13.08358,33.72988 30.45137,37.20766c-3.18947,0.86951 -6.5452,1.33574 -10.0087,1.33574c-2.44202,0 -4.82122,-0.24035 -7.13374,-0.68451c4.83227,15.08136 18.84471,26.05604 35.4576,26.36272c-12.99109,10.18254 -29.35627,16.24724 -47.14249,16.24724c-3.05998,0 -6.08289,-0.17405 -9.0539,-0.52542c16.79851,10.76734 36.74515,17.04995 58.18361,17.04995"/>
  </g>
 </g>
</svg>